<?xml version="1.0" encoding="UTF-8"?>
<svg width="21px" height="16px" viewBox="0 0 21 16" version="1.1" xmlns="http://www.w3.org/2000/svg" xmlns:xlink="http://www.w3.org/1999/xlink">
    <title>编组 20备份 98</title>
    <g id="页面-1" stroke="none" stroke-width="1" fill="none" fill-rule="evenodd">
        <g id="组件" transform="translate(-102.000000, -1091.000000)" fill="#76A32C">
            <g id="编组-20备份-98" transform="translate(112.318434, 1099.000000) scale(-1, -1) translate(-112.318434, -1099.000000) translate(102.000000, 1091.000000)">
                <path d="M19.1296924,0.886938322 L8.4691086,7.16044992 C7.99312583,7.44055498 7.83433557,8.05348527 8.11444063,8.52946804 C8.20108167,8.67669725 8.32399529,8.79927622 8.47146017,8.88551555 L19.132044,15.1199601 C19.6087886,15.3987665 20.2212837,15.2383057 20.5000901,14.7615611 C20.5896603,14.6084005 20.6368675,14.4341664 20.6368675,14.2567375 L20.6368675,1.74878137 C20.6368675,1.19649662 20.1891522,0.748781373 19.6368675,0.748781373 C19.4585137,0.748781373 19.2834054,0.796481732 19.1296924,0.886938322 Z" id="路径-11" transform="translate(13.818434, 8.000000) scale(-1, 1) translate(-13.818434, -8.000000) "></path>
                <path d="M12.1296924,0.886938322 L1.4691086,7.16044992 C0.993125829,7.44055498 0.834335567,8.05348527 1.11444063,8.52946804 C1.20108167,8.67669725 1.32399529,8.79927622 1.47146017,8.88551555 L12.132044,15.1199601 C12.6087886,15.3987665 13.2212837,15.2383057 13.5000901,14.7615611 C13.5896603,14.6084005 13.6368675,14.4341664 13.6368675,14.2567375 L13.6368675,1.74878137 C13.6368675,1.19649662 13.1891522,0.748781373 12.6368675,0.748781373 C12.4585137,0.748781373 12.2834054,0.796481732 12.1296924,0.886938322 Z" id="路径-11备份" transform="translate(6.818434, 8.000000) scale(-1, 1) translate(-6.818434, -8.000000) "></path>
            </g>
        </g>
    </g>
</svg>